<?xml version="1.0" encoding="iso-8859-1"?>
<!-- Generator: Adobe Illustrator 16.0.0, SVG Export Plug-In . SVG Version: 6.00 Build 0)  -->
<!DOCTYPE svg PUBLIC "-//W3C//DTD SVG 1.1//EN" "http://www.w3.org/Graphics/SVG/1.1/DTD/svg11.dtd">
<svg version="1.1" id="Capa_1" xmlns="http://www.w3.org/2000/svg" xmlns:xlink="http://www.w3.org/1999/xlink" x="0px" y="0px"
	 width="367.529px" height="367.529px" viewBox="0 0 367.529 367.529" style="enable-background:new 0 0 367.529 367.529;"
	 xml:space="preserve">
<g>
	<g>
		<path d="M360.132,233.034L207.039,94.305c-1.717-1.561-3.608-2.876-5.584-4.02V67.854h-1.459
			c-1.009-3.081-3.441-5.677-7.687-6.653c-9.49-2.183-19.957-5.302-26.424-13.042c-3.125-3.744-4.095-8.677-2.762-11.277
			c7.575-14.769,29.601-10.268,42.252-4.804c13.475,5.825,25.221-13.819,11.626-19.692c-23.479-10.142-61.676-14.709-74.316,14.21
			c-9.761,22.32,4.978,39.536,23.722,49.302v14.213c-2.099,1.189-4.113,2.54-5.936,4.188L7.404,233.034
			c-12.859,11.655-8.542,21.101,9.641,21.101h72.784v-12.304v-12.292H47.895L177.01,112.533c1.66-1.507,4.125-2.369,6.755-2.369
			c2.634,0,5.099,0.861,6.759,2.369l129.112,117.006h-42.767v12.292v12.304h73.613C368.664,254.135,372.982,244.689,360.132,233.034
			z"/>
		<path d="M102.127,229.539v12.292v12.304v108.783l38.536-11.674l-0.357-73.583c-0.03-6.785,5.45-12.334,12.238-12.357
			c0.018,0,0.042,0,0.06,0c6.764,0,12.268,5.465,12.298,12.238l0.321,66.263l99.349-30.091v-59.585v-12.304v-12.292v-24.95H102.127
			V229.539z"/>
	</g>
</g>
<g>
</g>
<g>
</g>
<g>
</g>
<g>
</g>
<g>
</g>
<g>
</g>
<g>
</g>
<g>
</g>
<g>
</g>
<g>
</g>
<g>
</g>
<g>
</g>
<g>
</g>
<g>
</g>
<g>
</g>
</svg>
